<svg id="efc25b0c-8c79-4ef6-b0c9-e5de33840e0a" data-name="Layer 1" xmlns="http://www.w3.org/2000/svg" viewBox="0 0 118.77 18.39"><defs><style>.\39 e1c9aad-9b4d-44b8-907f-d2b8cf1fcbc0{fill:#f2f2f2;}.\31 fa83a8a-cdf4-46af-a5a0-c70539795752,.b0074542-be46-4778-933b-e3a8f105a448{fill:#ffd727;}.\31 fa83a8a-cdf4-46af-a5a0-c70539795752,.\37 6a75c2b-e0f8-4329-b115-4763d51f8d4d{stroke:#ffd727;stroke-miterlimit:10;}.\31 fa83a8a-cdf4-46af-a5a0-c70539795752{stroke-width:0.75px;}.\37 6a75c2b-e0f8-4329-b115-4763d51f8d4d{fill:none;stroke-width:2px;}</style></defs><title>3</title><path class="9e1c9aad-9b4d-44b8-907f-d2b8cf1fcbc0" d="M7,27.5V10.15h5.89a6.76,6.76,0,0,1,4,1A3.32,3.32,0,0,1,18.22,14q0,3.13-4.16,4.43,4.86,1.18,4.86,4.77a3.79,3.79,0,0,1-1.42,3.18,6.53,6.53,0,0,1-4.08,1.11Zm3.4-10.12h.86a3.65,3.65,0,0,0,2.42-.75,2.52,2.52,0,0,0,.9-2A1.73,1.73,0,0,0,13.83,13a5.91,5.91,0,0,0-2.72-.43h-.73Zm0,7.66h.77a7,7,0,0,0,3.13-.49,1.86,1.86,0,0,0,.86-1.78A2.67,2.67,0,0,0,14,20.57a4.67,4.67,0,0,0-2.91-.88h-.7Z" transform="translate(-6.98 -9.78)"/><path class="9e1c9aad-9b4d-44b8-907f-d2b8cf1fcbc0" d="M32.57,27.06a16.64,16.64,0,0,1-4.69.73A7,7,0,0,1,22.8,26a6.67,6.67,0,0,1-1.86-5,6.76,6.76,0,0,1,1.71-4.81,5.88,5.88,0,0,1,4.51-1.82,4.76,4.76,0,0,1,4.13,1.78q1.3,1.78,1.3,5.64h-8a3.63,3.63,0,0,0,4,3.68,11.53,11.53,0,0,0,3.94-.81Zm-8-7.27h4.62q0-3.29-2.12-3.29T24.55,19.8Z" transform="translate(-6.98 -9.78)"/><path class="9e1c9aad-9b4d-44b8-907f-d2b8cf1fcbc0" d="M42.79,27.43a7.46,7.46,0,0,1-2,.36q-4.51,0-4.51-4.22V16.8H34.88V14.63h1.44V12.46l3.47-.4v2.57h2.75V16.8H39.79v6.32q0,2.37,1.93,2.37a4.28,4.28,0,0,0,1.07-.16Z" transform="translate(-6.98 -9.78)"/><path class="1fa83a8a-cdf4-46af-a5a0-c70539795752" d="M51.79,27.5,45.23,10.15H47.7l5.37,14.2,5.18-14.2H60.4L54.11,27.5Z" transform="translate(-6.98 -9.78)"/><path class="1fa83a8a-cdf4-46af-a5a0-c70539795752" d="M62.81,12.46V10.15h2.31v2.31Zm0,15V14.77h2.31V27.5Z" transform="translate(-6.98 -9.78)"/><path class="1fa83a8a-cdf4-46af-a5a0-c70539795752" d="M79.08,27.09a14.07,14.07,0,0,1-4,.7,6,6,0,0,1-4.59-1.87,6.75,6.75,0,0,1-1.78-4.85,7.1,7.1,0,0,1,1.56-4.75,5,5,0,0,1,4-1.85,4.24,4.24,0,0,1,3.57,1.64,7.52,7.52,0,0,1,1.26,4.66v.71h-8Q71.6,26,75.54,26a10.61,10.61,0,0,0,3.54-.77ZM71.2,19.76h5.61q0-3.55-2.65-3.55T71.2,19.76Z" transform="translate(-6.98 -9.78)"/><path class="b0074542-be46-4778-933b-e3a8f105a448" d="M115.64,27.09V24.54A11.81,11.81,0,0,0,120,25.62q2.13,0,2.13-1.45,0-.94-1.76-1.64l-1.17-.47a7.61,7.61,0,0,1-2.73-1.66,3.13,3.13,0,0,1-.82-2.2,3.31,3.31,0,0,1,1.39-2.84,6.54,6.54,0,0,1,3.9-1,18.52,18.52,0,0,1,3.74.46v2.44a11,11,0,0,0-3.46-.73q-2.16,0-2.16,1.34,0,.88,1.59,1.49l1,.39a9.26,9.26,0,0,1,3.15,1.73,3.05,3.05,0,0,1,.88,2.26,3.52,3.52,0,0,1-1.51,2.95,6.36,6.36,0,0,1-3.92,1.13A16.4,16.4,0,0,1,115.64,27.09Z" transform="translate(-6.98 -9.78)"/><polygon class="76a75c2b-e0f8-4329-b115-4763d51f8d4d" points="87.02 10.24 92.98 2.21 106.05 17.15 101.05 17.17 75.05 17.29 83.01 6.25 87.02 10.24"/></svg>